# xmcd
#
# Track frame offsets: 
#        150
#        13140
#        26220
#        38442
#        51005
#        63777
#        76360
#        89852
#        103737
#        117385
#        131377
#        144492
#        158650
#        172825
#        186772
#        200370
#        214695
#        227392
#        240130
#        253687
#        265630
#        279212
#
# Disc length: 3913 seconds
#
# Revision: 0
# Processed by: cddbd v1.5.2PL0 Copyright (c) Steve Scherf et al.
# Submitted via: ExactAudioCopy v0.99pb4
#
DISCID=1b0f4716
DTITLE=Leroy Carr - Complete Recorded Works, Volume 5
DYEAR=1992
DGENRE=Blues
TTITLE0=Southbound blues
TTITLE1=Barrel house woman
TTITLE2=Barrel house woman no. 2
TTITLE3=Florida bound blues
TTITLE4=Cruel woman blues
TTITLE5=Muddy water
TTITLE6=I believe I'll make a change
TTITLE7=Black gal (what makes your head so hard?)
TTITLE8=Don't start no stuff
TTITLE9=George Street blues
TTITLE10=Bo bo stomp
TTITLE11=Big four blues
TTITLE12=Hard hearted papa (take 1)
TTITLE13=Hard hearted papa (take 2)
TTITLE14=You left me crying (take 1)
TTITLE15=You left me crying (take 2)
TTITLE16=Broken hearted man
TTITLE17=Evil-hearted woman (take 1)
TTITLE18=Good woman blues
TTITLE19=Hustler's blues
TTITLE20=Eleven twenty-nine blues
TTITLE21=You've got me grieving
EXTD=
EXTT0=
EXTT1=
EXTT2=
EXTT3=
EXTT4=
EXTT5=
EXTT6=
EXTT7=
EXTT8=
EXTT9=
EXTT10=
EXTT11=
EXTT12=
EXTT13=
EXTT14=
EXTT15=
EXTT16=
EXTT17=
EXTT18=
EXTT19=
EXTT20=
EXTT21=
PLAYORDER=
